<svg width="193" height="192" viewBox="0 0 193 192" fill="none" xmlns="http://www.w3.org/2000/svg">
<path d="M58.0835 191.833C52.8127 191.833 48.3021 189.958 44.5518 186.208C40.7952 182.451 38.9168 177.938 38.9168 172.667C38.9168 167.396 40.7952 162.882 44.5518 159.125C48.3021 155.375 52.8127 153.5 58.0835 153.5C63.3543 153.5 67.8649 155.375 71.6152 159.125C75.3718 162.882 77.2502 167.396 77.2502 172.667C77.2502 177.938 75.3718 182.451 71.6152 186.208C67.8649 189.958 63.3543 191.833 58.0835 191.833ZM153.917 191.833C148.646 191.833 144.135 189.958 140.385 186.208C136.628 182.451 134.75 177.938 134.75 172.667C134.75 167.396 136.628 162.882 140.385 159.125C144.135 155.375 148.646 153.5 153.917 153.5C159.188 153.5 163.701 155.375 167.458 159.125C171.208 162.882 173.083 167.396 173.083 172.667C173.083 177.938 171.208 182.451 167.458 186.208C163.701 189.958 159.188 191.833 153.917 191.833ZM58.0835 143.917C50.896 143.917 45.4654 140.761 41.7918 134.448C38.1182 128.142 37.9585 121.875 41.3127 115.646L54.2502 92.1667L19.7502 19.3333H9.92725C7.21197 19.3333 4.97586 18.4133 3.21891 16.5733C1.46197 14.7397 0.583496 12.4653 0.583496 9.74999C0.583496 7.03471 1.5035 4.75707 3.3435 2.91707C5.17711 1.08346 7.45155 0.166656 10.1668 0.166656H25.7397C27.4967 0.166656 29.1738 0.645824 30.771 1.60416C32.3682 2.56249 33.5661 3.92013 34.3647 5.67707L40.8335 19.3333H182.188C186.5 19.3333 189.455 20.9305 191.052 24.125C192.649 27.3194 192.57 30.6736 190.813 34.1875L156.792 95.5208C155.035 98.7153 152.719 101.191 149.844 102.948C146.969 104.705 143.695 105.583 140.021 105.583H68.6252L58.0835 124.75H163.74C166.455 124.75 168.691 125.667 170.448 127.5C172.205 129.34 173.083 131.618 173.083 134.333C173.083 137.049 172.163 139.323 170.323 141.157C168.49 142.997 166.215 143.917 163.5 143.917H58.0835Z" fill="#00D398"/>
</svg>
